PathFileType	4	(X/Y/Z)	c:/Users/goper/Files/vsCode/490R/osim_files/C12/C12_SSWS_04.trc
DataRate	CameraRate	NumFrames	NumMarkers	Units                	OrigDataRate	OrigDataStartFrame	OrigNumFrames
120.00	120.00	9	36	mm	120.0	913	1216
                Frame#	Time	LPSIS			LASIS			LTH1			LTH2			LTH3			LTH4			LLFE			LMFE			LSH1			LSH2			LSH3			LSH4			LLMAL			LMMAL			LCAL			LMTP5			LTOE			LMTP1			RPSIS			RASIS			RTH1			RTH2			RTH3			RTH4			RLFE			RMFE			RSH1			RSH2			RSH3			RSH4			RLMAL			RMMAL			RCAL			RMTP1			RTOE			RMTP5		
		X1	Y1	Z1	X2	Y2	Z2	X3	Y3	Z3	X4	Y4	Z4	X5	Y5	Z5	X6	Y6	Z6	X7	Y7	Z7	X8	Y8	Z8	X9	Y9	Z9	X10	Y10	Z10	X11	Y11	Z11	X12	Y12	Z12	X13	Y13	Z13	X14	Y14	Z14	X15	Y15	Z15	X16	Y16	Z16	X17	Y17	Z17	X18	Y18	Z18	X19	Y19	Z19	X20	Y20	Z20	X21	Y21	Z21	X22	Y22	Z22	X23	Y23	Z23	X24	Y24	Z24	X25	Y25	Z25	X26	Y26	Z26	X27	Y27	Z27	X28	Y28	Z28	X29	Y29	Z29	X30	Y30	Z30	X31	Y31	Z31	X32	Y32	Z32	X33	Y33	Z33	X34	Y34	Z34	X35	Y35	Z35	X36	Y36	Z36

913	7.60000	-3909.12744	1097.58252	353.42941	-4082.95654	1048.20862	426.43628	0.00000	0.00000	0.00000	-3973.46802	727.91077	451.56653	0.00000	0.00000	0.00000	-4025.59790	718.05804	456.10333	-4005.23511	548.43884	405.41309	-4012.20776	548.00769	279.79239	-3935.77734	457.46790	415.40790	-3934.06885	410.66632	420.67371	0.00000	0.00000	0.00000	-3985.78687	402.69711	413.70544	-3917.43799	118.05454	361.66913	-3928.58862	122.82010	285.36832	0.00000	0.00000	0.00000	-4045.51318	51.75748	388.61606	0.00000	0.00000	0.00000	-4061.15479	44.67013	277.81140	0.00000	0.00000	0.00000	-4093.96460	1061.39941	171.32593	-4155.18848	766.05157	84.17152	0.00000	0.00000	0.00000	-4094.59375	779.52075	80.62111	0.00000	0.00000	0.00000	-4182.18701	582.64014	111.85762	-4215.03564	585.34497	243.82970	0.00000	0.00000	0.00000	-4121.01709	459.13361	93.73326	-4094.00391	520.83484	106.47552	-4076.48120	482.52789	102.28973	-3970.78613	209.22792	151.57745	-4020.24658	206.12666	226.05869	-3906.50684	208.78329	211.26398	-4091.32275	81.61165	207.97110	-4128.89941	82.16936	165.46040	-4068.33691	74.74129	104.91453
914	7.60833	-3918.12646	1097.27856	352.59723	-4091.68115	1047.87671	426.62982	0.00000	0.00000	0.00000	0.00000	0.00000	0.00000	0.00000	0.00000	0.00000	-4031.10889	718.03870	455.83270	-4007.03906	548.42957	402.53699	-4014.85205	547.90240	279.82108	-3937.52295	457.94800	415.32953	-3935.59106	411.18399	420.52762	-3999.81543	449.19608	410.98224	-3987.48340	403.05762	413.51999	-3917.71704	118.62276	361.60474	-3928.84741	123.21382	285.35495	0.00000	0.00000	0.00000	-4045.55933	51.73587	388.62839	0.00000	0.00000	0.00000	-4061.19971	44.54358	277.81793	0.00000	0.00000	0.00000	-4103.37158	1061.04553	171.58316	-4167.38916	766.88123	85.28606	0.00000	0.00000	0.00000	-4106.08301	779.91699	81.17622	0.00000	0.00000	0.00000	-4195.19971	582.36267	114.73434	-4226.91699	586.97888	245.90782	0.00000	0.00000	0.00000	-4139.10254	456.83713	95.13242	-4109.11523	517.49005	107.86935	-4093.83667	478.46063	103.63327	-4000.34863	200.48419	151.44279	-4050.57837	198.74467	225.88657	-3936.56299	196.24690	210.92311	-4128.43262	78.53387	206.58763	-4166.02002	81.71859	164.15828	-4105.83740	71.45576	103.46132
915	7.61667	-3927.00024	1096.78406	351.46686	-4100.39014	1047.35168	426.80276	0.00000	0.00000	0.00000	0.00000	0.00000	0.00000	0.00000	0.00000	0.00000	-4036.72803	717.95441	455.51712	-4009.36646	548.07959	401.28174	-4017.41309	547.69238	279.78214	-3939.29492	458.62115	415.12073	-3937.04126	411.80994	420.36081	-4001.52295	449.54788	410.80997	-3988.93140	403.50037	413.31665	-3917.91919	119.14277	361.45602	-3929.07129	123.56681	285.31021	0.00000	0.00000	0.00000	-4045.50586	51.66269	388.63733	-4101.11426	79.69237	321.39575	-4068.50073	53.91226	277.91510	0.00000	0.00000	0.00000	-4112.77393	1060.40796	171.82777	-4179.37646	767.29913	86.57443	0.00000	0.00000	0.00000	-4117.29883	779.73364	81.87489	0.00000	0.00000	0.00000	0.00000	0.00000	0.00000	-4238.39844	587.92230	248.16539	0.00000	0.00000	0.00000	-4156.79932	454.30444	96.51894	-4124.04590	513.72479	109.29331	-4110.62891	474.06509	104.78848	-4030.14233	191.72522	151.31349	-4081.15845	191.34776	225.62216	-3966.78271	183.41055	210.61752	-4165.78271	76.03192	205.35159	-4203.08154	81.66781	162.96864	-4143.76807	68.77879	102.19115
916	7.62500	-3936.19482	1096.17590	350.39981	-4109.15186	1046.62207	426.96188	0.00000	0.00000	0.00000	0.00000	0.00000	0.00000	0.00000	0.00000	0.00000	-4042.40674	717.90186	455.18640	-4011.60547	548.24860	401.14789	-4019.96655	547.36359	279.77551	-3941.30298	458.84467	415.41473	-3938.31763	412.20135	420.11218	-4002.96191	449.79135	410.67108	-3990.22070	403.80414	413.15622	-3918.21875	119.64201	361.34344	-3929.34253	123.85761	285.25101	0.00000	0.00000	0.00000	-4045.47559	51.59316	388.63208	-4101.24854	79.53426	321.39951	-4068.59814	53.85855	277.89993	0.00000	0.00000	0.00000	-4122.26123	1059.59595	171.90038	-4191.16943	767.26630	87.97375	0.00000	0.00000	0.00000	-4128.88086	779.51971	82.57797	0.00000	0.00000	0.00000	0.00000	0.00000	0.00000	-4249.61621	588.23419	250.50589	0.00000	0.00000	0.00000	-4174.25195	451.44296	97.96797	-4138.63232	509.52713	110.69031	-4127.47119	469.19647	105.95654	-4060.55933	183.27609	151.19106	-4113.24121	184.61143	227.19362	-3997.74878	170.84047	210.14619	-4203.29541	74.14483	204.33978	-4240.22998	82.27843	161.98047	-4181.96631	66.74069	101.17023
917	7.63333	-3945.49170	1095.24878	349.24667	-4118.03320	1045.73328	427.07330	0.00000	0.00000	0.00000	0.00000	0.00000	0.00000	0.00000	0.00000	0.00000	-4047.89868	717.60632	454.80139	-4014.09619	548.32208	401.13998	-4022.47217	546.85376	279.67206	-3942.08301	459.60837	414.51523	-3939.52783	412.84702	419.83231	-4002.64893	448.95377	409.25604	-3991.23511	404.03424	413.07339	-3918.44702	120.07405	361.21973	-3929.65405	124.16963	285.14911	0.00000	0.00000	0.00000	-4045.53149	51.62033	388.62762	-4101.41260	79.38393	321.43619	-4068.69482	53.78690	277.86417	0.00000	0.00000	0.00000	-4131.85107	1058.58423	171.96167	-4202.72412	766.76196	89.46696	0.00000	0.00000	0.00000	-4140.25684	778.81024	83.51733	0.00000	0.00000	0.00000	-4232.63330	583.58270	120.52184	-4260.35059	587.87274	252.87854	0.00000	0.00000	0.00000	-4191.63477	448.34378	99.35703	-4153.17725	504.88663	111.77974	-4144.19482	463.99625	106.90781	-4091.39087	175.06013	150.99002	-4144.60156	177.91164	227.02652	-4029.31958	158.65250	209.50401	-4240.96533	73.05169	203.59604	-4277.36670	83.58556	161.32097	-4220.41748	65.29847	100.34134
918	7.64167	-3954.37964	1094.55408	348.03366	-4127.03613	1044.64026	427.12457	0.00000	0.00000	0.00000	0.00000	0.00000	0.00000	0.00000	0.00000	0.00000	-4053.39136	717.18561	454.34000	-4016.49097	547.93298	401.00623	-4025.13892	546.30676	279.48782	-3943.52002	460.17950	414.09808	-3940.81030	413.33795	419.55035	-4004.15820	449.29178	409.20795	-3992.34790	404.27679	413.06433	-3918.69824	120.47990	361.00476	-3930.16772	124.56635	284.99026	0.00000	0.00000	0.00000	-4045.63818	51.66726	388.61682	-4101.58838	79.14841	321.45273	-4068.85620	53.68737	277.82114	0.00000	0.00000	0.00000	-4141.48340	1057.25232	171.95439	-4214.11670	765.72351	91.04593	0.00000	0.00000	0.00000	-4151.46631	777.58813	84.40265	0.00000	0.00000	0.00000	0.00000	0.00000	0.00000	-4270.77295	586.92242	255.25528	0.00000	0.00000	0.00000	-4208.76465	444.90338	100.55195	-4167.39307	499.81140	112.65262	-4160.77100	458.42661	107.47900	-4122.87939	167.45316	150.57967	-4176.16895	171.52689	226.75865	-4061.43823	146.86757	208.64775	-4278.52734	72.66326	203.11555	-4314.47607	85.62103	161.05745	-4259.02930	64.59554	99.75002
919	7.65000	-3963.84009	1093.43896	346.81445	-4136.16797	1043.38977	427.15439	0.00000	0.00000	0.00000	0.00000	0.00000	0.00000	0.00000	0.00000	0.00000	-4059.15088	716.90320	454.11804	-4019.11206	547.52478	400.89175	-4027.87671	545.71808	279.30930	-3944.89258	460.50079	413.66873	-3941.94116	413.59888	419.21283	-4005.49976	449.36508	409.25540	-3993.42432	404.35486	413.09207	-3919.02124	120.93968	360.78824	-3930.62866	124.83999	284.77924	0.00000	0.00000	0.00000	-4045.60010	51.53965	388.63293	-4101.73340	78.88253	321.46008	-4068.92700	53.56042	277.77090	0.00000	0.00000	0.00000	-4151.24365	1055.75122	171.81012	-4225.16260	764.22430	92.70695	0.00000	0.00000	0.00000	-4162.59424	776.05493	85.45412	0.00000	0.00000	0.00000	0.00000	0.00000	0.00000	-4280.66748	585.44366	257.67926	0.00000	0.00000	0.00000	-4225.58154	441.28699	101.62712	-4181.39355	494.53061	113.57642	-4177.24023	452.67874	108.04858	-4154.41699	160.13193	150.28061	-4206.15234	164.03020	224.59180	-4092.06836	135.93115	206.78148	-4315.97656	73.24126	203.01585	-4351.36279	88.53206	161.25568	-4297.79932	64.81698	99.65733
920	7.65833	-3973.60840	1092.22400	345.75607	-4145.36475	1041.98535	427.11169	0.00000	0.00000	0.00000	0.00000	0.00000	0.00000	0.00000	0.00000	0.00000	-4064.54834	716.34668	453.67664	-4021.58423	547.04150	400.79117	-4030.80420	545.21021	279.18564	-3946.42456	460.91516	413.27112	-3943.13477	414.10559	418.91544	-4006.95312	449.35294	409.20029	-3994.60962	404.48419	413.11591	-3919.33667	121.43822	360.56766	-3930.99756	125.08731	284.58252	0.00000	0.00000	0.00000	-4045.56519	51.46028	388.61679	-4101.86865	78.65499	321.50595	-4069.04712	53.51231	277.74466	0.00000	0.00000	0.00000	-4161.01514	1054.13477	171.63637	-4235.88135	762.17773	94.44118	0.00000	0.00000	0.00000	-4173.57422	773.22827	87.12282	0.00000	0.00000	0.00000	0.00000	0.00000	0.00000	-4289.85352	583.37555	260.13730	0.00000	0.00000	0.00000	-4241.89893	437.74588	102.60662	-4195.34619	488.72220	114.52251	-4193.59766	446.62964	108.67512	-4186.21680	153.66527	149.99030	-4238.01270	158.90970	224.44597	-4140.44629	119.52194	205.10710	-4353.16943	74.92357	203.27126	-4387.92871	92.54087	161.86284	-4336.68604	66.33361	99.78165
921	7.66667	-3983.01538	1090.97925	344.75424	-4154.66162	1040.32886	426.96982	0.00000	0.00000	0.00000	0.00000	0.00000	0.00000	0.00000	0.00000	0.00000	-4070.17993	715.93738	453.37701	-4024.39209	546.68134	400.86407	-4033.76172	544.65668	279.01382	-3948.30103	461.38104	412.96463	-3944.62476	414.58160	418.62650	-4010.36450	450.24835	410.78314	-3996.18042	404.58447	413.14383	-3919.62500	121.79861	360.40573	-3931.45581	125.37489	284.36334	0.00000	0.00000	0.00000	-4045.58325	51.40619	388.60471	-4102.00928	78.36902	321.51019	-4069.16772	53.42142	277.72174	0.00000	0.00000	0.00000	-4170.93701	1052.28809	171.28336	-4246.28662	759.62750	96.21217	0.00000	0.00000	0.00000	-4184.86475	770.84674	88.43932	0.00000	0.00000	0.00000	0.00000	0.00000	0.00000	-4298.49951	580.75934	262.62793	0.00000	0.00000	0.00000	-4257.87842	434.05280	103.75970	-4208.92139	482.79211	115.57020	-4209.66553	440.66840	109.36164	-4218.09912	148.03410	149.55786	-4271.39062	155.97502	226.25574	0.00000	0.00000	0.00000	-4390.07471	77.85136	203.94424	-4424.95215	98.97938	164.18288	-4375.61084	69.29267	100.42461
